<svg width="241" height="51" viewBox="0 0 241 51" fill="none" xmlns="http://www.w3.org/2000/svg">
<rect y="0.877197" width="241" height="50" rx="8" fill="black"/>
<path d="M106.481 30.9853L105.313 27.5338H100.445L99.2769 30.9853H97.2148L101.826 18.2146H103.967L108.578 30.9853H106.481ZM102.852 20.3386L100.95 25.9407H104.808L102.905 20.3386H102.852ZM114.747 21.2767C117.198 21.2767 118.809 23.1972 118.809 26.1797C118.809 29.1533 117.207 31.0826 114.791 31.0826C113.411 31.0826 112.322 30.472 111.747 29.41H111.711V34.1271H109.791V21.3741H111.641V22.9671H111.685C112.225 21.9316 113.411 21.2767 114.747 21.2767ZM114.26 29.4542C115.818 29.4542 116.844 28.171 116.844 26.1797C116.844 24.1973 115.818 22.9052 114.26 22.9052C112.738 22.9052 111.702 24.2238 111.694 26.1797C111.702 28.1444 112.729 29.4542 114.26 29.4542ZM125.296 21.2767C127.748 21.2767 129.358 23.1972 129.358 26.1797C129.358 29.1533 127.757 31.0826 125.34 31.0826C123.96 31.0826 122.871 30.472 122.296 29.41H122.261V34.1271H120.34V21.3741H122.19V22.9671H122.234C122.774 21.9316 123.96 21.2767 125.296 21.2767ZM124.809 29.4542C126.367 29.4542 127.394 28.171 127.394 26.1797C127.394 24.1973 126.367 22.9052 124.809 22.9052C123.287 22.9052 122.252 24.2238 122.243 26.1797C122.252 28.1444 123.278 29.4542 124.809 29.4542ZM134.695 27.4276H136.651C136.792 28.6931 138.023 29.525 139.704 29.525C141.315 29.525 142.474 28.6931 142.474 27.5515C142.474 26.5602 141.775 25.9673 140.12 25.5602L138.465 25.1619C136.12 24.5955 135.031 23.4981 135.031 21.7192C135.031 19.5156 136.952 18.0022 139.678 18.0022C142.377 18.0022 144.227 19.5156 144.289 21.7192H142.359C142.244 20.4448 141.191 19.6749 139.651 19.6749C138.111 19.6749 137.058 20.4537 137.058 21.5865C137.058 22.4892 137.731 23.0202 139.377 23.4273L140.784 23.7725C143.404 24.392 144.492 25.4451 144.492 27.3125C144.492 29.702 142.589 31.1977 139.563 31.1977C136.731 31.1977 134.819 29.7374 134.695 27.4276ZM146.651 19.2147H148.563V21.3741H150.404V22.8875H148.563V28.2595C148.563 29.0914 148.935 29.4808 149.74 29.4808C149.944 29.4808 150.271 29.4542 150.395 29.4365V30.9499C150.183 31.003 149.731 31.0472 149.315 31.0472C147.395 31.0472 146.651 30.3127 146.651 28.4542V22.8875H145.324V21.3741H146.651V19.2147ZM156.139 31.1003C153.36 31.1003 151.59 29.2064 151.59 26.1797C151.59 23.1618 153.369 21.2502 156.139 21.2502C158.909 21.2502 160.679 23.153 160.679 26.1797C160.679 29.2064 158.918 31.1003 156.139 31.1003ZM156.139 29.5073C157.767 29.5073 158.732 28.2772 158.732 26.1797C158.732 24.0822 157.767 22.8432 156.139 22.8432C154.51 22.8432 153.537 24.0911 153.537 26.1797C153.537 28.2772 154.51 29.5073 156.139 29.5073ZM162.219 30.9853V21.3741H164.051V22.9937H164.086C164.387 21.9228 165.272 21.2767 166.405 21.2767C166.617 21.2767 166.892 21.3033 167.042 21.3475V23.1441C166.883 23.0822 166.485 23.0202 166.201 23.0202C164.936 23.0202 164.139 23.8964 164.139 25.2504V30.9853H162.219ZM172.308 22.8167C170.927 22.8167 169.927 23.8256 169.821 25.3035H174.697C174.653 23.8079 173.706 22.8167 172.308 22.8167ZM174.689 28.171H176.521C176.246 29.8967 174.556 31.1003 172.396 31.1003C169.609 31.1003 167.874 29.2241 167.874 26.2151C167.874 23.2061 169.626 21.2502 172.317 21.2502C174.954 21.2502 176.618 23.0822 176.618 25.9938V26.6664H169.812V26.7815C169.812 28.4453 170.857 29.5427 172.432 29.5427C173.547 29.5427 174.423 29.0117 174.689 28.171Z" fill="white"/>
<path d="M84.5849 35.8176C83.4882 37.4143 82.3537 39.0012 80.5625 39.0345C78.7998 39.0677 78.2347 37.995 76.2232 37.995C74.2096 37.995 73.5797 39.0012 71.9153 39.0677C70.1861 39.1322 68.8713 37.3432 67.7655 35.7537C65.5065 32.5037 63.7823 26.5644 66.1011 22.5562C67.2494 20.5656 69.307 19.3062 71.5367 19.2729C73.2349 19.2418 74.8391 20.4127 75.8763 20.4127C76.9151 20.4127 78.8622 19.0069 80.9092 19.2131C81.766 19.2483 84.1708 19.5568 85.7152 21.8067C85.5932 21.8866 82.8448 23.4785 82.8783 26.795C82.912 30.7567 86.3653 32.0736 86.4054 32.0915C86.3742 32.1846 85.8534 33.9715 84.5849 35.8176ZM77.0644 14.8611C78.0125 13.7551 79.6143 12.9325 80.9362 12.8772C81.1051 14.4135 80.4843 15.9519 79.5674 17.0604C78.6487 18.1669 77.1448 19.0289 75.6689 18.9138C75.4683 17.4108 76.2122 15.8433 77.0644 14.8611Z" fill="white"/>
</svg>
