<svg width="241" height="51" viewBox="0 0 241 51" fill="none" xmlns="http://www.w3.org/2000/svg">
<rect y="0.877197" width="241" height="50" rx="8" fill="black"/>
<path fill-rule="evenodd" clip-rule="evenodd" d="M160.066 30.1273H160.945V18.8773H160.066V30.1273ZM157.195 29.1898C157.742 28.4622 158.015 27.4808 158.015 26.2454V26.1209C158.015 24.8465 157.744 23.8504 157.202 23.1326C156.665 22.4149 155.923 22.056 154.976 22.056C153.892 22.056 153.064 22.4783 152.493 23.3231L152.449 22.2025H151.636V33.1741H152.507V29.1312C153.083 29.8929 153.914 30.2738 154.998 30.2738C155.916 30.2738 156.648 29.9124 157.195 29.1898ZM156.514 23.6966C156.929 24.2825 157.136 25.0809 157.136 26.0916C157.136 27.2098 156.929 28.0643 156.514 28.6551C156.103 29.241 155.53 29.534 154.792 29.534C154.26 29.534 153.799 29.4144 153.408 29.1751C153.018 28.9359 152.717 28.5892 152.507 28.1351V24.3338C152.712 23.8407 153.008 23.4647 153.394 23.2059C153.779 22.9471 154.241 22.8177 154.778 22.8177C155.52 22.8177 156.099 23.1107 156.514 23.6966ZM168.335 30.1273C168.247 29.8782 168.191 29.5096 168.166 29.0213C167.859 29.4217 167.466 29.7318 166.987 29.9515C166.514 30.1663 166.011 30.2738 165.479 30.2738C164.717 30.2738 164.099 30.0614 163.625 29.6365C163.157 29.2117 162.922 28.6746 162.922 28.0252C162.922 27.2537 163.242 26.6434 163.882 26.1942C164.526 25.7449 165.422 25.5203 166.57 25.5203H168.159V24.6195C168.159 24.0531 167.983 23.6087 167.632 23.2865C167.285 22.9593 166.777 22.7957 166.108 22.7957C165.498 22.7957 164.993 22.952 164.592 23.2645C164.192 23.577 163.992 23.953 163.992 24.3924L163.113 24.3851C163.113 23.7552 163.406 23.2108 163.992 22.7518C164.578 22.2879 165.298 22.056 166.152 22.056C167.036 22.056 167.732 22.2781 168.24 22.7225C168.752 23.1619 169.016 23.7772 169.031 24.5682V28.3182C169.031 29.0848 169.111 29.6585 169.272 30.0394V30.1273H168.335ZM165.581 29.4974C166.167 29.4974 166.689 29.3558 167.148 29.0726C167.612 28.7894 167.949 28.411 168.159 27.9373V26.1942H166.592C165.718 26.2039 165.034 26.3651 164.541 26.6776C164.048 26.9852 163.801 27.41 163.801 27.952C163.801 28.3963 163.965 28.765 164.292 29.0579C164.624 29.3509 165.054 29.4974 165.581 29.4974ZM176.084 22.2025L173.77 28.8675L171.309 22.2025H170.349L173.337 30.0614L172.949 31.1307C172.764 31.6483 172.537 32.012 172.268 32.222C172.004 32.4368 171.658 32.5443 171.228 32.5443L170.774 32.5003L170.781 33.2254C171.02 33.2938 171.245 33.328 171.455 33.328C172.363 33.328 173.035 32.847 173.469 31.8851L173.645 31.4749L177.029 22.2025H176.084ZM105.745 21.9534L106.58 21.1624C105.813 20.4349 105.027 19.9075 104.221 19.5804C103.416 19.2484 102.556 19.0823 101.643 19.0823C100.515 19.0823 99.5044 19.3314 98.6108 19.8294C97.7173 20.3226 97.0141 21.0086 96.5015 21.8875C95.9888 22.7664 95.7324 23.7161 95.7324 24.7366C95.7324 26.1087 96.1792 27.3172 97.0727 28.3621C98.2349 29.7196 99.812 30.3983 101.804 30.3983C103.445 30.3983 104.753 29.91 105.73 28.9334C106.711 27.952 107.207 26.6287 107.217 24.9637H102.573V26.0037H106.008C105.867 26.9998 105.413 27.8104 104.646 28.4354C103.879 29.0604 102.942 29.3729 101.833 29.3729C100.92 29.3729 100.081 29.1654 99.314 28.7503C98.5474 28.3304 97.9468 27.7567 97.5122 27.0291C97.0776 26.2967 96.8603 25.5252 96.8603 24.7147C96.8603 23.9237 97.0703 23.1741 97.4902 22.4661C97.9101 21.7532 98.501 21.1893 99.2627 20.7742C100.029 20.3592 100.835 20.1517 101.68 20.1517C102.358 20.1517 103.054 20.3055 103.767 20.6131C104.485 20.9158 105.144 21.3626 105.745 21.9534ZM115.918 23.2864C115.112 22.3978 114.097 21.9534 112.871 21.9534C111.641 21.9534 110.623 22.4002 109.817 23.2938C109.084 24.1043 108.718 25.0613 108.718 26.1649C108.718 27.2781 109.104 28.2523 109.875 29.0872C110.652 29.9173 111.65 30.3323 112.871 30.3323C114.087 30.3323 115.081 29.9173 115.852 29.0872C116.628 28.2523 117.017 27.2781 117.017 26.1649C117.017 25.0565 116.65 24.097 115.918 23.2864ZM110.681 23.9017C111.291 23.2718 112.021 22.9569 112.871 22.9569C113.716 22.9569 114.443 23.2718 115.054 23.9017C115.669 24.5316 115.977 25.2933 115.977 26.1868C115.977 26.763 115.837 27.3001 115.559 27.7982C115.281 28.2962 114.905 28.682 114.431 28.9554C113.958 29.2239 113.437 29.3582 112.871 29.3582C112.305 29.3582 111.785 29.2239 111.311 28.9554C110.837 28.682 110.461 28.2962 110.183 27.7982C109.905 27.3001 109.766 26.763 109.766 26.1868C109.766 25.2933 110.071 24.5316 110.681 23.9017ZM122.7 21.9534C123.926 21.9534 124.941 22.3978 125.747 23.2864C126.479 24.097 126.846 25.0565 126.846 26.1649C126.846 27.2781 126.458 28.2523 125.681 29.0872C124.91 29.9173 123.916 30.3323 122.7 30.3323C121.479 30.3323 120.481 29.9173 119.705 29.0872C118.933 28.2523 118.547 27.2781 118.547 26.1649C118.547 25.0613 118.914 24.1043 119.646 23.2938C120.452 22.4002 121.47 21.9534 122.7 21.9534ZM122.7 22.9569C121.851 22.9569 121.121 23.2718 120.51 23.9017C119.9 24.5316 119.595 25.2933 119.595 26.1868C119.595 26.763 119.734 27.3001 120.012 27.7982C120.291 28.2962 120.666 28.682 121.14 28.9554C121.614 29.2239 122.134 29.3582 122.7 29.3582C123.267 29.3582 123.787 29.2239 124.26 28.9554C124.734 28.682 125.11 28.2962 125.388 27.7982C125.666 27.3001 125.806 26.763 125.806 26.1868C125.806 25.2933 125.498 24.5316 124.883 23.9017C124.272 23.2718 123.545 22.9569 122.7 22.9569ZM136.653 22.1585H135.62V23.5428C135.142 22.9764 134.644 22.5711 134.126 22.327C133.613 22.0779 133.059 21.9534 132.463 21.9534C131.746 21.9534 131.062 22.139 130.413 22.5101C129.768 22.8812 129.263 23.3865 128.896 24.0262C128.53 24.661 128.347 25.347 128.347 26.0843C128.347 26.8216 128.523 27.4979 128.875 28.1131C129.226 28.7283 129.724 29.2191 130.369 29.5853C131.013 29.9466 131.702 30.1273 132.434 30.1273C133.059 30.1273 133.65 29.9979 134.207 29.7391C134.763 29.4754 135.234 29.0994 135.62 28.6112V29.0213C135.62 29.9002 135.518 30.5374 135.312 30.9329C135.107 31.3284 134.763 31.6556 134.28 31.9144C133.801 32.178 133.213 32.3099 132.515 32.3099C131.807 32.3099 131.213 32.1829 130.735 31.929C130.256 31.6751 129.866 31.2845 129.563 30.7571H128.45C128.738 31.3821 129.053 31.8558 129.395 32.178C129.736 32.5052 130.178 32.764 130.72 32.9544C131.267 33.1497 131.882 33.2474 132.566 33.2474C133.499 33.2474 134.297 33.0496 134.961 32.6541C135.625 32.2586 136.091 31.6946 136.36 30.9622C136.555 30.4446 136.653 29.6268 136.653 28.5086V22.1585ZM130.977 23.367C131.475 23.0838 132.014 22.9422 132.595 22.9422C133.152 22.9422 133.672 23.0789 134.155 23.3524C134.639 23.6258 135.012 23.9993 135.276 24.473C135.54 24.9417 135.671 25.4764 135.671 26.077C135.671 26.9998 135.383 27.7445 134.807 28.3109C134.236 28.8773 133.479 29.1605 132.537 29.1605C131.604 29.1605 130.845 28.8748 130.259 28.3035C129.673 27.7322 129.38 27.0096 129.38 26.1356C129.38 25.5594 129.521 25.0247 129.805 24.5316C130.088 24.0335 130.479 23.6453 130.977 23.367ZM138.696 19.0823H139.722V30.1273H138.696V19.0823ZM149.426 27.9373L148.562 27.4832C148.25 28.0057 147.959 28.3841 147.69 28.6185C147.422 28.8529 147.095 29.0408 146.709 29.1824C146.328 29.324 145.935 29.3948 145.53 29.3948C144.69 29.3948 143.984 29.0994 143.413 28.5086C142.842 27.9129 142.546 27.1512 142.527 26.2235H149.69C149.68 25.1346 149.387 24.2264 148.811 23.4988C148 22.4686 146.916 21.9534 145.559 21.9534C144.241 21.9534 143.188 22.4564 142.402 23.4622C141.782 24.2532 141.472 25.1541 141.472 26.1649C141.472 27.2391 141.838 28.2034 142.571 29.0579C143.303 29.9075 144.319 30.3323 145.618 30.3323C146.204 30.3323 146.729 30.2445 147.192 30.0687C147.656 29.888 148.074 29.6268 148.445 29.285C148.816 28.9432 149.143 28.494 149.426 27.9373ZM147.961 24.0262C148.225 24.3533 148.425 24.7904 148.562 25.3372H142.629C142.839 24.6048 143.149 24.0555 143.56 23.6893C144.121 23.1863 144.792 22.9349 145.574 22.9349C146.047 22.9349 146.499 23.035 146.929 23.2352C147.358 23.4354 147.703 23.699 147.961 24.0262Z" fill="white"/>
<path d="M63 37.167V15.5899C63 14.8369 63.4365 14.1861 64.07 13.8772L76.5513 26.3748L64.065 38.8772C63.4342 38.5674 63 37.918 63 37.167ZM80.5111 30.3395L66.8635 38.2291L77.627 27.4517L80.5111 30.3395ZM84.7533 24.8658C85.2072 25.2137 85.5 25.7619 85.5 26.3785C85.5 26.9858 85.2161 27.5266 84.7738 27.8751L81.8749 29.5511L78.7026 26.3748L81.8727 23.2005L84.7533 24.8658ZM66.8715 14.5284L80.5089 22.4121L77.627 25.2977L66.8715 14.5284Z" fill="white"/>
</svg>
