<svg width="30" height="31" viewBox="0 0 30 31" fill="none" xmlns="http://www.w3.org/2000/svg">
<path d="M23.3435 30.98L6.68564 30.9958C3.02091 30.9992 0.0199923 28.0041 0.0158278 24.3394L2.77671e-06 7.68149C-0.0033288 4.01676 2.99176 1.01584 6.65649 1.01168L23.3144 0.995852C26.9791 0.992521 29.98 3.98761 29.9842 7.65234L30 24.3102C30.0042 27.9758 27.0082 30.9767 23.3435 30.98Z" fill="url(#paint0_radial_14509_12628)"/>
<path d="M23.3435 30.98L6.68564 30.9958C3.02091 30.9992 0.0199923 28.0041 0.0158278 24.3394L2.77671e-06 7.68149C-0.0033288 4.01676 2.99176 1.01584 6.65649 1.01168L23.3144 0.995852C26.9791 0.992521 29.98 3.98761 29.9842 7.65234L30 24.3102C30.0042 27.9758 27.0082 30.9767 23.3435 30.98Z" fill="url(#paint1_radial_14509_12628)"/>
<path d="M15.0002 21.8265C11.786 21.8265 9.16992 19.2112 9.16992 15.9963C9.16992 12.7813 11.786 10.166 15.0002 10.166C18.2143 10.166 20.8304 12.7813 20.8304 15.9963C20.8304 19.2112 18.2143 21.8265 15.0002 21.8265ZM15.0002 11.8318C12.7039 11.8318 10.8357 13.7 10.8357 15.9963C10.8357 18.2926 12.7039 20.1607 15.0002 20.1607C17.2965 20.1607 19.1646 18.2926 19.1646 15.9963C19.1646 13.7 17.2965 11.8318 15.0002 11.8318Z" fill="white"/>
<path d="M21.2474 10.9989C21.9374 10.9989 22.4967 10.4396 22.4967 9.74958C22.4967 9.05959 21.9374 8.50024 21.2474 8.50024C20.5574 8.50024 19.998 9.05959 19.998 9.74958C19.998 10.4396 20.5574 10.9989 21.2474 10.9989Z" fill="white"/>
<path d="M19.9978 26.8239H10.0031C6.78897 26.8239 4.17285 24.2086 4.17285 20.9937V10.999C4.17285 7.78399 6.78897 5.1687 10.0031 5.1687H19.9978C23.212 5.1687 25.8281 7.78399 25.8281 10.999V20.9937C25.8281 24.2086 23.212 26.8239 19.9978 26.8239ZM10.0031 6.83449C7.70682 6.83449 5.83864 8.70267 5.83864 10.999V20.9937C5.83864 23.29 7.70682 25.1581 10.0031 25.1581H19.9978C22.2941 25.1581 24.1623 23.29 24.1623 20.9937V10.999C24.1623 8.70267 22.2941 6.83449 19.9978 6.83449H10.0031Z" fill="white"/>
<defs>
<radialGradient id="paint0_radial_14509_12628" cx="0" cy="0" r="1" gradientUnits="userSpaceOnUse" gradientTransform="translate(11.1524 31.0175) scale(37.3961 37.3961)">
<stop stop-color="#FFDD55"/>
<stop offset="0.328" stop-color="#FF543F"/>
<stop offset="0.348" stop-color="#FC5245"/>
<stop offset="0.504" stop-color="#E64771"/>
<stop offset="0.643" stop-color="#D53E91"/>
<stop offset="0.761" stop-color="#CC39A4"/>
<stop offset="0.841" stop-color="#C837AB"/>
</radialGradient>
<radialGradient id="paint1_radial_14509_12628" cx="0" cy="0" r="1" gradientUnits="userSpaceOnUse" gradientTransform="translate(4.82745 0.621302) scale(24.8311 16.5449)">
<stop stop-color="#4168C9"/>
<stop offset="0.999" stop-color="#4168C9" stop-opacity="0"/>
</radialGradient>
</defs>
</svg>
