<svg width="30" height="31" viewBox="0 0 30 31" fill="none" xmlns="http://www.w3.org/2000/svg">
<path d="M15 0.00415039C11.0218 0.00415039 7.20644 1.5845 4.3934 4.39755C1.58035 7.21059 0 11.0259 0 15.0042C0 18.9824 1.58035 22.7977 4.3934 25.6108C7.20644 28.4238 11.0218 30.0042 15 30.0042C18.9782 30.0042 22.7936 28.4238 25.6066 25.6108C28.4196 22.7977 30 18.9824 30 15.0042C30 11.0259 28.4196 7.21059 25.6066 4.39755C22.7936 1.5845 18.9782 0.00415039 15 0.00415039Z" fill="#29B6F6"/>
<path d="M22.4625 8.2544L19.653 22.5989C19.653 22.5989 19.5322 23.2544 18.7192 23.2544C18.2872 23.2544 18.0645 23.0489 18.0645 23.0489L11.979 17.9991L9.0015 16.4984L5.18025 15.4821C5.18025 15.4821 4.5 15.2856 4.5 14.7231C4.5 14.2544 5.19975 14.0309 5.19975 14.0309L21.1867 7.6799C21.186 7.67915 21.675 7.50365 22.0312 7.5044C22.2502 7.5044 22.5 7.59815 22.5 7.8794C22.5 8.0669 22.4625 8.2544 22.4625 8.2544Z" fill="white"/>
<path d="M14.2496 19.8831L11.6801 22.4136C11.6801 22.4136 11.5684 22.4998 11.4191 22.5036C11.3674 22.5051 11.3119 22.4968 11.2549 22.4713L11.9779 17.9976L14.2496 19.8831Z" fill="#B0BEC5"/>
<path d="M19.4227 10.6511C19.296 10.4861 19.062 10.4561 18.897 10.5813L9 16.5041C9 16.5041 10.5795 20.9231 10.8202 21.6881C11.0617 22.4538 11.2552 22.4718 11.2552 22.4718L11.9783 17.9981L19.3522 11.1761C19.5172 11.0508 19.548 10.8161 19.4227 10.6511Z" fill="#CFD8DC"/>
</svg>
