<svg width="134" height="40" viewBox="0 0 134 40" fill="none" xmlns="http://www.w3.org/2000/svg">
<path d="M127.709 0H6.29108C2.81661 0 0 2.79822 0 6.25V33.75C0 37.2018 2.81661 40 6.29108 40H127.709C131.183 40 134 37.2018 134 33.75V6.25C134 2.79822 131.183 0 127.709 0Z" fill="black"/>
<path d="M51.9965 24.9832L50.8283 21.5316H45.9608L44.7925 24.9832H42.7305L47.3414 12.2125H49.4831L54.094 24.9832H51.9965ZM48.368 14.3365L46.4652 19.9386H50.3239L48.4211 14.3365H48.368ZM60.2625 15.2746C62.714 15.2746 64.3247 17.1951 64.3247 20.1776C64.3247 23.1512 62.7228 25.0805 60.3068 25.0805C58.9261 25.0805 57.8376 24.4698 57.2623 23.4078H57.2269V28.1249H55.3065V15.3719H57.1561V16.965H57.2004C57.7402 15.9295 58.9261 15.2746 60.2625 15.2746ZM59.7758 23.4521C61.3334 23.4521 62.36 22.1688 62.36 20.1776C62.36 18.1951 61.3334 16.903 59.7758 16.903C58.2535 16.903 57.2181 18.2217 57.2092 20.1776C57.2181 22.1423 58.2447 23.4521 59.7758 23.4521ZM70.8118 15.2746C73.2633 15.2746 74.874 17.1951 74.874 20.1776C74.874 23.1512 73.2722 25.0805 70.8561 25.0805C69.4755 25.0805 68.3869 24.4698 67.8116 23.4078H67.7762V28.1249H65.8558V15.3719H67.7054V16.965H67.7497C68.2896 15.9295 69.4755 15.2746 70.8118 15.2746ZM70.3251 23.4521C71.8827 23.4521 72.9093 22.1688 72.9093 20.1776C72.9093 18.1951 71.8827 16.903 70.3251 16.903C68.8029 16.903 67.7674 18.2217 67.7585 20.1776C67.7674 22.1423 68.794 23.4521 70.3251 23.4521ZM80.2106 21.4254H82.1665C82.3081 22.691 83.5383 23.5229 85.2198 23.5229C86.8305 23.5229 87.9899 22.691 87.9899 21.5493C87.9899 20.5581 87.2907 19.9651 85.6357 19.558L83.9808 19.1598C81.6355 18.5934 80.5469 17.496 80.5469 15.7171C80.5469 13.5134 82.4674 12.0001 85.1932 12.0001C87.8925 12.0001 89.7422 13.5134 89.8041 15.7171H87.8748C87.7598 14.4427 86.7066 13.6727 85.1667 13.6727C83.6268 13.6727 82.5736 14.4515 82.5736 15.5844C82.5736 16.4871 83.2462 17.0181 84.8923 17.4252L86.2995 17.7703C88.9191 18.3898 90.0077 19.443 90.0077 21.3104C90.0077 23.6999 88.1049 25.1956 85.0782 25.1956C82.2462 25.1956 80.3345 23.7353 80.2106 21.4254ZM92.1671 13.2125H94.0787V15.3719H95.9196V16.8853H94.0787V22.2573C94.0787 23.0892 94.4504 23.4786 95.2558 23.4786C95.4594 23.4786 95.7868 23.4521 95.9107 23.4344V24.9478C95.6983 25.0009 95.2469 25.0451 94.831 25.0451C92.9105 25.0451 92.1671 24.3105 92.1671 22.452V16.8853H90.8396V15.3719H92.1671V13.2125ZM101.654 25.0982C98.8755 25.0982 97.1055 23.2043 97.1055 20.1776C97.1055 17.1597 98.8843 15.248 101.654 15.248C104.424 15.248 106.195 17.1508 106.195 20.1776C106.195 23.2043 104.433 25.0982 101.654 25.0982ZM101.654 23.5052C103.283 23.5052 104.247 22.275 104.247 20.1776C104.247 18.0801 103.283 16.8411 101.654 16.8411C100.026 16.8411 99.0525 18.0889 99.0525 20.1776C99.0525 22.275 100.026 23.5052 101.654 23.5052ZM107.734 24.9832V15.3719H109.566V16.9915H109.602C109.903 15.9207 110.788 15.2746 111.921 15.2746C112.133 15.2746 112.407 15.3011 112.558 15.3454V17.142C112.398 17.08 112 17.0181 111.717 17.0181C110.451 17.0181 109.655 17.8942 109.655 19.2483V24.9832H107.734ZM117.824 16.8145C116.443 16.8145 115.443 17.8234 115.337 19.3014H120.213C120.169 17.8057 119.222 16.8145 117.824 16.8145ZM120.204 22.1688H122.036C121.762 23.8946 120.071 25.0982 117.912 25.0982C115.124 25.0982 113.39 23.222 113.39 20.213C113.39 17.2039 115.142 15.248 117.832 15.248C120.47 15.248 122.134 17.08 122.134 19.9917V20.6643H115.328V20.7794C115.328 22.4432 116.372 23.5406 117.947 23.5406C119.063 23.5406 119.939 23.0096 120.204 22.1688Z" fill="white"/>
<path d="M30.0995 29.8154C29.0028 31.4121 27.8683 32.9989 26.0772 33.0322C24.3144 33.0655 23.7493 31.9927 21.7378 31.9927C19.7242 31.9927 19.0943 32.9989 17.4299 33.0655C15.7008 33.1299 14.3859 31.341 13.2802 29.7515C11.0211 26.5015 9.29695 20.5621 11.6158 16.5539C12.7641 14.5634 14.8217 13.3039 17.0514 13.2707C18.7495 13.2395 20.3537 14.4104 21.3909 14.4104C22.4297 14.4104 24.3768 13.0046 26.4238 13.2108C27.2807 13.2461 29.6855 13.5546 31.2299 15.8045C31.1078 15.8843 28.3594 17.4762 28.393 20.7927C28.4266 24.7544 31.88 26.0713 31.9201 26.0892C31.8888 26.1824 31.368 27.9692 30.0995 29.8154ZM22.5791 8.85883C23.5271 7.75284 25.1289 6.93021 26.4509 6.87494C26.6198 8.41121 25.999 9.9496 25.0821 11.0581C24.1633 12.1647 22.6594 13.0267 21.1835 12.9116C20.983 11.4085 21.7269 9.84102 22.5791 8.85883Z" fill="white"/>
</svg>
