<svg width="157" height="115" viewBox="0 0 157 115" fill="none" xmlns="http://www.w3.org/2000/svg">
<g filter="url(#filter0_b_16185_8984)">
<rect x="0.902344" y="114.991" width="114.991" height="155.195" rx="13.847" transform="rotate(-90 0.902344 114.991)" fill="black" fill-opacity="0.3"/>
<path fill-rule="evenodd" clip-rule="evenodd" d="M19.5851 81.5572C19.5851 89.4941 26.0192 95.9282 33.9561 95.9282C41.893 95.9282 48.3271 89.4941 48.3271 81.5572C48.3271 73.6203 41.893 67.1862 33.9561 67.1862C26.0192 67.1862 19.5851 73.6203 19.5851 81.5572ZM33.9561 64.312C24.4319 64.312 16.7109 72.0329 16.7109 81.5572C16.7109 91.0814 24.4319 98.8024 33.9561 98.8024C43.4804 98.8024 51.2013 91.0814 51.2013 81.5572C51.2013 72.0329 43.4804 64.312 33.9561 64.312Z" fill="url(#paint0_linear_16185_8984)"/>
<path d="M22.1193 83.5596H27.6163C28.2691 83.5596 28.687 83.2593 28.8175 82.6717L30.4497 75.2031L33.505 93.6527C33.6878 94.7757 35.3983 94.7626 35.6203 93.6658L38.5451 79.8514L39.0804 82.5542C39.211 83.2332 39.6157 83.5596 40.2947 83.5596H45.1128C45.7264 83.5596 46.2096 83.0896 46.2096 82.4889C46.2096 81.8622 45.7395 81.3922 45.1128 81.3922H40.8823L39.5113 75.2553C39.2632 74.1977 37.6702 74.1977 37.4221 75.2945L34.5626 88.1035L31.4942 69.458C31.3245 68.3612 29.7315 68.3351 29.4834 69.4449L26.8981 81.3922H22.1193C21.5056 81.3922 21.0225 81.8753 21.0225 82.4889C21.0225 83.0896 21.5056 83.5596 22.1193 83.5596Z" fill="url(#paint1_linear_16185_8984)"/>
<path d="M76.2298 68.9139V93.0571H70.6423V73.3976H65.8137V68.9139H76.2298ZM90.771 93.471C88.7705 93.471 86.9885 92.9767 85.425 91.9879C83.8614 90.9992 82.6312 89.5736 81.7345 87.7111C80.8607 85.8257 80.4239 83.5838 80.4239 80.9855C80.4239 78.3872 80.8607 76.1569 81.7345 74.2944C82.6312 72.4089 83.8614 70.9718 85.425 69.9831C86.9885 68.9944 88.7705 68.5 90.771 68.5C92.7714 68.5 94.5534 68.9944 96.117 69.9831C97.6805 70.9718 98.8992 72.4089 99.773 74.2944C100.67 76.1569 101.118 78.3872 101.118 80.9855C101.118 83.5838 100.67 85.8257 99.773 87.7111C98.8992 89.5736 97.6805 90.9992 96.117 91.9879C94.5534 92.9767 92.7714 93.471 90.771 93.471ZM90.771 88.7458C92.2426 88.7458 93.3922 88.1135 94.22 86.8489C95.0708 85.5842 95.4962 83.6298 95.4962 80.9855C95.4962 78.3412 95.0708 76.3868 94.22 75.1221C93.3922 73.8575 92.2426 73.2252 90.771 73.2252C89.3224 73.2252 88.1727 73.8575 87.3219 75.1221C86.4942 76.3868 86.0803 78.3412 86.0803 80.9855C86.0803 83.6298 86.4942 85.5842 87.3219 86.8489C88.1727 88.1135 89.3224 88.7458 90.771 88.7458ZM125.941 87.987H122.009V93.0571H116.56V87.987H103.557V84.2276L114.939 68.9139H120.802L110.248 83.4343H116.732V78.9161H122.009V83.4343H125.941V87.987Z" fill="white"/>
<path d="M38.0501 14.6576C30.6999 18.8927 31.5832 30.8249 31.5832 30.8249C31.5832 30.8249 28.3498 29.7471 28.3498 24.8969C24.492 27.1339 21.8828 31.4334 21.8828 36.214C21.8828 43.3572 27.6735 49.1479 34.8167 49.1479C41.9599 49.1479 47.7506 43.3572 47.7506 36.214C47.7505 25.7053 38.0501 23.5496 38.0501 14.6576V14.6576ZM35.9528 44.6913C33.3538 45.3393 30.7214 43.7577 30.0733 41.1586C29.4253 38.5595 31.0069 35.927 33.6061 35.279C39.8809 33.7146 40.6673 30.1859 40.6673 30.1859C40.6673 30.1859 43.7964 42.7357 35.9528 44.6913Z" fill="url(#paint2_linear_16185_8984)"/>
<path d="M84.9549 38.85V43.4027H66.7095V39.7812L76.0219 30.9862C77.0106 30.0434 77.6774 29.2387 78.0223 28.5719C78.3672 27.882 78.5397 27.2037 78.5397 26.5369C78.5397 25.5712 78.2063 24.8354 77.5394 24.3295C76.8956 23.8007 75.9414 23.5363 74.6767 23.5363C73.619 23.5363 72.6648 23.7432 71.814 24.1571C70.9633 24.548 70.2505 25.1458 69.6756 25.9506L65.6058 23.3293C66.5485 21.9267 67.8477 20.8345 69.5032 20.0527C71.1587 19.248 73.0557 18.8456 75.1941 18.8456C76.9876 18.8456 78.5512 19.1445 79.8848 19.7423C81.2414 20.3172 82.2876 21.1449 83.0234 22.2256C83.7822 23.2833 84.1616 24.5365 84.1616 25.9851C84.1616 27.2957 83.8857 28.5259 83.3338 29.6755C82.782 30.8252 81.7128 32.1359 80.1262 33.6074L74.5733 38.85H84.9549ZM109.032 38.3326H105.1V43.4027H99.6505V38.3326H86.6476V34.5732L98.0294 19.2595H103.893L93.3387 33.7799H99.8229V29.2617H105.1V33.7799H109.032V38.3326ZM118.913 28.3304C122.316 28.3304 124.823 29.0087 126.432 30.3654C128.065 31.722 128.881 33.5385 128.881 35.8148C128.881 37.2864 128.513 38.6315 127.777 39.8502C127.042 41.0459 125.915 42.0116 124.397 42.7474C122.903 43.4602 121.052 43.8166 118.844 43.8166C117.143 43.8166 115.464 43.5982 113.809 43.1613C112.176 42.7014 110.785 42.0576 109.635 41.2298L111.843 36.953C112.763 37.6428 113.82 38.1832 115.016 38.5741C116.212 38.942 117.442 39.1259 118.706 39.1259C120.109 39.1259 121.213 38.85 122.017 38.2981C122.822 37.7463 123.225 36.976 123.225 35.9873C123.225 34.9526 122.799 34.1708 121.948 33.6419C121.121 33.1131 119.672 32.8487 117.603 32.8487H111.429L112.671 19.2595H127.398V23.7432H117.327L116.947 28.3304H118.913Z" fill="white"/>
</g>
<defs>
<filter id="filter0_b_16185_8984" x="-16.4064" y="-17.3088" width="189.813" height="149.609" filterUnits="userSpaceOnUse" color-interpolation-filters="sRGB">
<feFlood flood-opacity="0" result="BackgroundImageFix"/>
<feGaussianBlur in="BackgroundImageFix" stdDeviation="8.65439"/>
<feComposite in2="SourceAlpha" operator="in" result="effect1_backgroundBlur_16185_8984"/>
<feBlend mode="normal" in="SourceGraphic" in2="effect1_backgroundBlur_16185_8984" result="shape"/>
</filter>
<linearGradient id="paint0_linear_16185_8984" x1="7.51352" y1="101.389" x2="47.2464" y2="48.412" gradientUnits="userSpaceOnUse">
<stop stop-color="#FFC800"/>
<stop offset="1" stop-color="#00DB59"/>
</linearGradient>
<linearGradient id="paint1_linear_16185_8984" x1="14.3059" y1="96.4317" x2="44.319" y2="57.4673" gradientUnits="userSpaceOnUse">
<stop stop-color="#FFC800"/>
<stop offset="1" stop-color="#00DB59"/>
</linearGradient>
<linearGradient id="paint2_linear_16185_8984" x1="14.9847" y1="51.7347" x2="56.3732" y2="10.3463" gradientUnits="userSpaceOnUse">
<stop stop-color="#00DB59"/>
<stop offset="1" stop-color="#1DCCFD"/>
</linearGradient>
</defs>
</svg>
