<svg width="50" height="50" viewBox="0 0 50 50" fill="none" xmlns="http://www.w3.org/2000/svg">
<path d="M0 13.3333C0 5.96954 5.96954 0 13.3333 0H36.6667C44.0305 0 50 5.96954 50 13.3333V36.6667C50 44.0305 44.0305 50 36.6667 50H13.3333C5.96954 50 0 44.0305 0 36.6667V13.3333Z" fill="white"/>
<path fill-rule="evenodd" clip-rule="evenodd" d="M5.83105 29.9822V31.3795C5.96541 31.6706 5.7997 34.4608 7.94047 36.7762C9.5662 38.5318 12.9251 39.2394 15.2854 38.6303C15.8094 38.496 16.3602 38.281 16.8036 38.0347C17.2649 37.7794 17.7396 37.4704 18.0934 37.1703C19.8401 35.6879 20.8433 34.3085 21.8151 32.2931C23.6021 28.5893 24.453 22.0282 21.5912 18.6916C21.0404 18.0512 20.0461 17.366 18.8593 17.1241C17.4888 16.842 16.3602 16.9719 15.3928 17.6392C13.4044 19.0051 13.3909 22.0685 15.9034 22.8657C16.7633 23.1389 17.7889 23.018 18.5368 22.5343C18.6577 22.4581 18.7518 22.391 18.8548 22.3148C18.9533 22.2432 19.0832 22.1446 19.1369 22.0416C18.6667 22.279 18.295 22.6507 17.4261 22.5432C16.7857 22.4626 16.3154 22.1133 16.0109 21.746C15.1465 20.7204 15.5989 18.3513 17.771 17.6705C19.6654 17.0749 21.1344 18.2438 22.048 19.7755C24.4172 23.748 22.7243 30.5868 20.6283 33.8651C20.3372 34.3174 20.0237 34.7832 19.7013 35.1549C19.6162 35.2535 19.549 35.3341 19.4549 35.4461C18.5189 36.5702 17.5112 37.6092 15.9437 38.0839C14.7166 38.4512 13.261 38.4467 12.1011 38.0212C10.9053 37.5823 10.1215 36.9419 9.49454 36.1582C8.17784 34.5056 7.65832 31.581 7.98078 28.9745C8.32563 26.1664 9.85731 22.5835 11.5592 20.3263C11.8279 19.968 12.3071 19.444 12.6161 19.1664C12.7146 19.0768 12.7863 18.9917 12.8938 18.9066C12.9968 18.826 13.1132 18.7275 13.2073 18.6513C13.6148 18.3154 14.0403 18.0422 14.524 17.7511C16.5573 16.5195 19.0787 15.9911 21.4927 17.1465C22.5228 17.6392 23.2841 18.3692 23.8216 19.2515C25.1517 21.4101 24.8068 24.2988 24.2425 26.7397C23.9694 27.931 23.5708 29.0417 23.2214 30.1837C22.8766 31.3213 22.5317 32.4409 22.2003 33.5964C21.945 34.4966 21.3583 36.3462 21.5151 37.3047C21.7345 38.6438 22.5093 39.3559 24.041 39.1006C25.2234 38.9035 26.0788 38.272 26.7819 37.3718C28.1792 35.5804 29.0526 33.8472 30.0826 31.7736C30.5753 30.7749 31.0455 29.7448 31.471 28.7282C31.6591 28.2803 32.5817 26.0007 32.716 25.5215C32.6892 25.8753 32.5638 26.3859 32.5011 26.7665C32.4294 27.1965 32.3667 27.604 32.2995 28.0474C31.9144 30.7122 31.6098 33.6949 32.0308 36.3597C32.2861 37.9809 32.8683 39.5619 33.6162 40.7174C34.2432 41.6892 35.3495 42.6835 36.5049 43.0328C36.702 43.091 36.9662 43.1 37.1364 43.1806H37.8978C37.9963 43.1313 38.4486 43.0597 38.6278 43.0014C39.1831 42.8133 40.0923 42.2983 40.3476 41.9131C39.4429 42.1236 38.8069 42.258 37.844 41.9624C36.8274 41.6489 35.9944 40.8069 35.4793 39.9246C35.2823 39.5843 35.1434 39.3156 35.0001 38.9304C34.1402 36.6597 34.3283 33.3053 34.5747 30.9227C34.924 27.5324 35.551 24.2227 36.3527 20.9489C37.3111 17.0346 38.8651 14.1593 40.9925 10.8765C41.194 10.5675 41.3911 10.2764 41.5881 9.99422L42.1972 9.12537C42.148 9.05372 42.1748 9.08954 42.1121 9.0358L41.7897 8.75365C41.6419 8.62377 41.4717 8.49837 41.3866 8.38193C41.0238 8.48941 39.4966 10.03 37.1902 9.94943C36.2855 9.91808 35.6988 9.59115 34.9867 9.28212C33.7282 8.74021 31.5516 8.33266 30.1632 8.58346C29.066 8.785 28.1479 9.46575 27.5791 10.2943C26.8894 11.293 26.6162 12.2962 26.6655 13.5861C26.7282 13.5502 27.0327 13.0934 27.0999 13.0038C27.2566 12.7978 27.3955 12.6545 27.5746 12.4709C28.8958 11.1183 30.2618 10.9929 32.2413 11.2303C33.4371 11.3736 34.4269 11.817 35.6316 11.8931C36.5587 11.9514 37.4544 11.808 38.3232 11.5572C38.5785 11.4856 38.8607 11.3647 39.0936 11.3109C39.0129 11.4722 38.8741 11.6423 38.7621 11.7946C38.6457 11.9514 38.5561 12.1081 38.4397 12.2783C37.1051 14.2175 35.3405 17.4063 34.4179 19.5023C33.7685 20.9847 33.2759 22.6238 32.7205 24.2182C32.0219 26.2246 30.0961 31.2989 28.9764 33.3366C28.5778 34.0622 28.2106 34.6847 27.7762 35.361C27.3014 36.0999 26.3027 37.4838 25.5727 37.963C25.2726 38.1601 24.9054 38.4691 24.4127 38.3392C23.9559 38.2183 23.8305 37.8645 23.7857 37.345C23.7006 36.297 24.0141 35.6431 24.256 34.6668C24.3635 34.2324 24.4665 33.8203 24.5964 33.3949C24.8382 32.6021 25.1786 31.8497 25.4473 31.0526C26.7953 27.0173 28.5509 18.9514 23.3468 16.6987C20.9821 15.6776 17.6545 15.888 15.2585 16.9987C14.3673 17.4108 14.8375 17.1376 13.9015 17.2003C13.4357 17.2316 12.9923 17.3436 12.6027 17.5048C11.8324 17.8228 11.1471 18.3737 10.6993 18.826C10.1081 19.4261 9.03325 20.81 8.6033 21.5355C8.40624 21.867 8.20471 22.1939 8.00765 22.5522C7.0761 24.2675 6.26996 26.5784 5.98333 28.549C5.9475 28.7998 5.87136 29.8792 5.83105 29.9822Z" fill="black"/>
</svg>
