<svg width="179" height="50" viewBox="0 0 179 50" fill="none" xmlns="http://www.w3.org/2000/svg">
<path d="M0 13.3333C0 5.96954 5.96954 0 13.3333 0H36.6667C44.0305 0 50 5.96954 50 13.3333V36.6667C50 44.0305 44.0305 50 36.6667 50H13.3333C5.96954 50 0 44.0305 0 36.6667V13.3333Z" fill="white"/>
<path fill-rule="evenodd" clip-rule="evenodd" d="M5.83105 29.9822V31.3795C5.96541 31.6706 5.7997 34.4608 7.94047 36.7762C9.5662 38.5318 12.9251 39.2394 15.2854 38.6303C15.8094 38.496 16.3602 38.281 16.8036 38.0347C17.2649 37.7794 17.7396 37.4704 18.0934 37.1703C19.8401 35.6879 20.8433 34.3085 21.8151 32.2931C23.6021 28.5893 24.453 22.0282 21.5912 18.6916C21.0404 18.0512 20.0461 17.366 18.8593 17.1241C17.4888 16.842 16.3602 16.9719 15.3928 17.6392C13.4044 19.0051 13.3909 22.0685 15.9034 22.8657C16.7633 23.1389 17.7889 23.018 18.5368 22.5343C18.6577 22.4581 18.7518 22.391 18.8548 22.3148C18.9533 22.2432 19.0832 22.1446 19.1369 22.0416C18.6667 22.279 18.295 22.6507 17.4261 22.5432C16.7857 22.4626 16.3154 22.1133 16.0109 21.746C15.1465 20.7204 15.5989 18.3513 17.771 17.6705C19.6654 17.0749 21.1344 18.2438 22.048 19.7755C24.4172 23.748 22.7243 30.5868 20.6283 33.8651C20.3372 34.3174 20.0237 34.7832 19.7013 35.1549C19.6162 35.2535 19.549 35.3341 19.4549 35.4461C18.5189 36.5702 17.5112 37.6092 15.9437 38.0839C14.7166 38.4512 13.261 38.4467 12.1011 38.0212C10.9053 37.5823 10.1215 36.9419 9.49454 36.1582C8.17784 34.5056 7.65832 31.581 7.98078 28.9745C8.32563 26.1664 9.85731 22.5835 11.5592 20.3263C11.8279 19.968 12.3071 19.444 12.6161 19.1664C12.7146 19.0768 12.7863 18.9917 12.8938 18.9066C12.9968 18.826 13.1132 18.7275 13.2073 18.6513C13.6148 18.3154 14.0403 18.0422 14.524 17.7511C16.5573 16.5195 19.0787 15.9911 21.4927 17.1465C22.5228 17.6392 23.2841 18.3692 23.8216 19.2515C25.1517 21.4101 24.8068 24.2988 24.2425 26.7397C23.9694 27.931 23.5708 29.0417 23.2214 30.1837C22.8766 31.3213 22.5317 32.4409 22.2003 33.5964C21.945 34.4966 21.3583 36.3462 21.5151 37.3047C21.7345 38.6438 22.5093 39.3559 24.041 39.1006C25.2234 38.9035 26.0788 38.272 26.7819 37.3718C28.1792 35.5804 29.0526 33.8472 30.0826 31.7736C30.5753 30.7749 31.0455 29.7448 31.471 28.7282C31.6591 28.2803 32.5817 26.0007 32.716 25.5215C32.6892 25.8753 32.5638 26.3859 32.5011 26.7665C32.4294 27.1965 32.3667 27.604 32.2995 28.0474C31.9144 30.7122 31.6098 33.6949 32.0308 36.3597C32.2861 37.9809 32.8683 39.5619 33.6162 40.7174C34.2432 41.6892 35.3495 42.6835 36.5049 43.0328C36.702 43.091 36.9662 43.1 37.1364 43.1806H37.8978C37.9963 43.1313 38.4486 43.0597 38.6278 43.0014C39.1831 42.8133 40.0923 42.2983 40.3476 41.9131C39.4429 42.1236 38.8069 42.258 37.844 41.9624C36.8274 41.6489 35.9944 40.8069 35.4793 39.9246C35.2823 39.5843 35.1434 39.3156 35.0001 38.9304C34.1402 36.6597 34.3283 33.3053 34.5747 30.9227C34.924 27.5324 35.551 24.2227 36.3527 20.9489C37.3111 17.0346 38.8651 14.1593 40.9925 10.8765C41.194 10.5675 41.3911 10.2764 41.5881 9.99422L42.1972 9.12537C42.148 9.05372 42.1748 9.08954 42.1121 9.0358L41.7897 8.75365C41.6419 8.62377 41.4717 8.49837 41.3866 8.38193C41.0238 8.48941 39.4966 10.03 37.1902 9.94943C36.2855 9.91808 35.6988 9.59115 34.9867 9.28212C33.7282 8.74021 31.5516 8.33266 30.1632 8.58346C29.066 8.785 28.1479 9.46575 27.5791 10.2943C26.8894 11.293 26.6162 12.2962 26.6655 13.5861C26.7282 13.5502 27.0327 13.0934 27.0999 13.0038C27.2566 12.7978 27.3955 12.6545 27.5746 12.4709C28.8958 11.1183 30.2618 10.9929 32.2413 11.2303C33.4371 11.3736 34.4269 11.817 35.6316 11.8931C36.5587 11.9514 37.4544 11.808 38.3232 11.5572C38.5785 11.4856 38.8607 11.3647 39.0936 11.3109C39.0129 11.4722 38.8741 11.6423 38.7621 11.7946C38.6457 11.9514 38.5561 12.1081 38.4397 12.2783C37.1051 14.2175 35.3405 17.4063 34.4179 19.5023C33.7685 20.9847 33.2759 22.6238 32.7205 24.2182C32.0219 26.2246 30.0961 31.2989 28.9764 33.3366C28.5778 34.0622 28.2106 34.6847 27.7762 35.361C27.3014 36.0999 26.3027 37.4838 25.5727 37.963C25.2726 38.1601 24.9054 38.4691 24.4127 38.3392C23.9559 38.2183 23.8305 37.8645 23.7857 37.345C23.7006 36.297 24.0141 35.6431 24.256 34.6668C24.3635 34.2324 24.4665 33.8203 24.5964 33.3949C24.8382 32.6021 25.1786 31.8497 25.4473 31.0526C26.7953 27.0173 28.5509 18.9514 23.3468 16.6987C20.9821 15.6776 17.6545 15.888 15.2585 16.9987C14.3673 17.4108 14.8375 17.1376 13.9015 17.2003C13.4357 17.2316 12.9923 17.3436 12.6027 17.5048C11.8324 17.8228 11.1471 18.3737 10.6993 18.826C10.1081 19.4261 9.03325 20.81 8.6033 21.5355C8.40624 21.867 8.20471 22.1939 8.00765 22.5522C7.0761 24.2675 6.26996 26.5784 5.98333 28.549C5.9475 28.7998 5.87136 29.8792 5.83105 29.9822Z" fill="black"/>
<path d="M72.3101 14.4683C71.2501 15.5183 69.9601 16.0433 68.4401 16.0433C66.9201 16.0433 65.6301 15.5183 64.5701 14.4683C63.5201 13.4083 62.9951 12.1133 62.9951 10.5833C62.9951 9.05334 63.5201 7.76334 64.5701 6.71334C65.6301 5.65334 66.9201 5.12334 68.4401 5.12334C69.9601 5.12334 71.2501 5.65334 72.3101 6.71334C73.3701 7.76334 73.9001 9.05334 73.9001 10.5833C73.9001 12.1133 73.3701 13.4083 72.3101 14.4683ZM66.0251 13.0583C66.6751 13.6983 67.4801 14.0183 68.4401 14.0183C69.4001 14.0183 70.2051 13.6983 70.8551 13.0583C71.5051 12.4083 71.8301 11.5833 71.8301 10.5833C71.8301 9.58334 71.5051 8.75834 70.8551 8.10834C70.2051 7.45834 69.4001 7.13334 68.4401 7.13334C67.4801 7.13334 66.6751 7.45834 66.0251 8.10834C65.3751 8.75834 65.0501 9.58334 65.0501 10.5833C65.0501 11.5833 65.3751 12.4083 66.0251 13.0583Z" fill="black"/>
<path d="M80.0301 16.0433C78.8601 16.0433 77.9001 15.7133 77.1501 15.0533C76.4001 14.3933 76.0251 13.5083 76.0251 12.3983V5.33334H78.0801V12.2333C78.0801 12.7833 78.2351 13.2183 78.5451 13.5383C78.8651 13.8583 79.3601 14.0183 80.0301 14.0183C80.7001 14.0183 81.1901 13.8583 81.5001 13.5383C81.8201 13.2183 81.9801 12.7833 81.9801 12.2333V5.33334H84.0501V12.3983C84.0501 13.5083 83.6751 14.3933 82.9251 15.0533C82.1751 15.7133 81.2101 16.0433 80.0301 16.0433Z" fill="black"/>
<path d="M85.9682 5.33334H92.7482V7.08834L89.1932 15.8333H87.0032L90.4532 7.31334H85.9682V5.33334Z" fill="black"/>
<path d="M106.463 5.33334V7.31334H103.628V15.8333H101.558V7.31334H98.7384V5.33334H106.463Z" fill="black"/>
<path d="M109.345 9.62334C109.525 9.14334 109.82 8.78334 110.23 8.54334C110.65 8.30334 111.115 8.18334 111.625 8.18334V10.3433C111.035 10.2733 110.505 10.3933 110.035 10.7033C109.575 11.0133 109.345 11.5283 109.345 12.2483V15.8333H107.41V8.33334H109.345V9.62334Z" fill="black"/>
<path d="M119.012 8.33334H120.947V15.8333H119.012V14.9483C118.432 15.6783 117.617 16.0433 116.567 16.0433C115.567 16.0433 114.707 15.6633 113.987 14.9033C113.277 14.1333 112.922 13.1933 112.922 12.0833C112.922 10.9733 113.277 10.0383 113.987 9.27834C114.707 8.50834 115.567 8.12334 116.567 8.12334C117.617 8.12334 118.432 8.48834 119.012 9.21834V8.33334ZM115.442 13.6133C115.832 14.0033 116.327 14.1983 116.927 14.1983C117.527 14.1983 118.022 14.0033 118.412 13.6133C118.812 13.2133 119.012 12.7033 119.012 12.0833C119.012 11.4633 118.812 10.9583 118.412 10.5683C118.022 10.1683 117.527 9.96834 116.927 9.96834C116.327 9.96834 115.832 10.1683 115.442 10.5683C115.052 10.9583 114.857 11.4633 114.857 12.0833C114.857 12.7033 115.052 13.2133 115.442 13.6133Z" fill="black"/>
<path d="M124.495 7.43334C124.175 7.43334 123.895 7.31834 123.655 7.08834C123.425 6.84834 123.31 6.56834 123.31 6.24834C123.31 5.92834 123.425 5.64834 123.655 5.40834C123.895 5.16834 124.175 5.04834 124.495 5.04834C124.825 5.04834 125.105 5.16834 125.335 5.40834C125.575 5.64834 125.695 5.92834 125.695 6.24834C125.695 6.56834 125.575 6.84834 125.335 7.08834C125.105 7.31834 124.825 7.43334 124.495 7.43334ZM123.535 15.8333V8.33334H125.47V15.8333H123.535Z" fill="black"/>
<path d="M132.244 8.12334C133.064 8.12334 133.739 8.39834 134.269 8.94834C134.809 9.49834 135.079 10.2583 135.079 11.2283V15.8333H133.144V11.4683C133.144 10.9683 133.009 10.5883 132.739 10.3283C132.469 10.0583 132.109 9.92334 131.659 9.92334C131.159 9.92334 130.759 10.0783 130.459 10.3883C130.159 10.6983 130.009 11.1633 130.009 11.7833V15.8333H128.074V8.33334H130.009V9.17334C130.479 8.47334 131.224 8.12334 132.244 8.12334Z" fill="black"/>
<path d="M138.525 7.43334C138.205 7.43334 137.925 7.31834 137.685 7.08834C137.455 6.84834 137.34 6.56834 137.34 6.24834C137.34 5.92834 137.455 5.64834 137.685 5.40834C137.925 5.16834 138.205 5.04834 138.525 5.04834C138.855 5.04834 139.135 5.16834 139.365 5.40834C139.605 5.64834 139.725 5.92834 139.725 6.24834C139.725 6.56834 139.605 6.84834 139.365 7.08834C139.135 7.31834 138.855 7.43334 138.525 7.43334ZM137.565 15.8333V8.33334H139.5V15.8333H137.565Z" fill="black"/>
<path d="M146.274 8.12334C147.094 8.12334 147.769 8.39834 148.299 8.94834C148.839 9.49834 149.109 10.2583 149.109 11.2283V15.8333H147.174V11.4683C147.174 10.9683 147.039 10.5883 146.769 10.3283C146.499 10.0583 146.139 9.92334 145.689 9.92334C145.189 9.92334 144.789 10.0783 144.489 10.3883C144.189 10.6983 144.039 11.1633 144.039 11.7833V15.8333H142.104V8.33334H144.039V9.17334C144.509 8.47334 145.254 8.12334 146.274 8.12334Z" fill="black"/>
<path d="M157.34 8.33334H159.23V15.4733C159.23 16.6333 158.845 17.5183 158.075 18.1283C157.315 18.7383 156.395 19.0433 155.315 19.0433C154.505 19.0433 153.79 18.8883 153.17 18.5783C152.56 18.2683 152.09 17.8133 151.76 17.2133L153.41 16.2683C153.79 16.9683 154.445 17.3183 155.375 17.3183C155.985 17.3183 156.465 17.1583 156.815 16.8383C157.165 16.5183 157.34 16.0633 157.34 15.4733V14.6633C156.77 15.4233 155.97 15.8033 154.94 15.8033C153.88 15.8033 152.99 15.4333 152.27 14.6933C151.56 13.9433 151.205 13.0333 151.205 11.9633C151.205 10.9033 151.565 9.99834 152.285 9.24834C153.005 8.49834 153.89 8.12334 154.94 8.12334C155.97 8.12334 156.77 8.50334 157.34 9.26334V8.33334ZM153.725 13.4483C154.125 13.8283 154.63 14.0183 155.24 14.0183C155.85 14.0183 156.35 13.8283 156.74 13.4483C157.14 13.0583 157.34 12.5633 157.34 11.9633C157.34 11.3733 157.14 10.8883 156.74 10.5083C156.35 10.1183 155.85 9.92334 155.24 9.92334C154.63 9.92334 154.125 10.1183 153.725 10.5083C153.335 10.8883 153.14 11.3733 153.14 11.9633C153.14 12.5633 153.335 13.0583 153.725 13.4483Z" fill="black"/>
<path d="M66.5399 32.63C65.4799 32.63 64.6032 32.28 63.9099 31.58C63.2232 30.88 62.8799 30.02 62.8799 29C62.8799 27.98 63.2232 27.12 63.9099 26.42C64.6032 25.72 65.4799 25.37 66.5399 25.37C67.1799 25.37 67.7666 25.5233 68.2999 25.83C68.8399 26.1367 69.2599 26.55 69.5599 27.07L68.7499 27.54C68.5499 27.1533 68.2499 26.8467 67.8499 26.62C67.4565 26.3867 67.0199 26.27 66.5399 26.27C65.7332 26.27 65.0732 26.53 64.5599 27.05C64.0532 27.57 63.7999 28.22 63.7999 29C63.7999 29.7733 64.0532 30.42 64.5599 30.94C65.0732 31.46 65.7332 31.72 66.5399 31.72C67.0199 31.72 67.4565 31.6067 67.8499 31.38C68.2499 31.1467 68.5499 30.84 68.7499 30.46L69.5599 30.92C69.2665 31.44 68.8499 31.8567 68.3099 32.17C67.7699 32.4767 67.1799 32.63 66.5399 32.63Z" fill="black"/>
<path d="M74.7236 31.87C74.2103 32.3767 73.587 32.63 72.8536 32.63C72.1203 32.63 71.497 32.3767 70.9836 31.87C70.477 31.3633 70.2236 30.74 70.2236 30C70.2236 29.26 70.477 28.6367 70.9836 28.13C71.497 27.6233 72.1203 27.37 72.8536 27.37C73.587 27.37 74.2103 27.6233 74.7236 28.13C75.237 28.6367 75.4936 29.26 75.4936 30C75.4936 30.74 75.237 31.3633 74.7236 31.87ZM72.8536 31.78C73.3536 31.78 73.7736 31.61 74.1136 31.27C74.4536 30.93 74.6236 30.5067 74.6236 30C74.6236 29.4933 74.4536 29.07 74.1136 28.73C73.7736 28.39 73.3536 28.22 72.8536 28.22C72.3603 28.22 71.9436 28.39 71.6036 28.73C71.2636 29.07 71.0936 29.4933 71.0936 30C71.0936 30.5067 71.2636 30.93 71.6036 31.27C71.9436 31.61 72.3603 31.78 72.8536 31.78Z" fill="black"/>
<path d="M79.0239 29.94C79.5773 30.1667 79.8539 30.5633 79.8539 31.13C79.8539 31.55 79.6873 31.9067 79.3539 32.2C79.0206 32.4867 78.5473 32.63 77.9339 32.63C76.9339 32.63 76.2639 32.23 75.9239 31.43L76.6539 31C76.8473 31.5467 77.2773 31.82 77.9439 31.82C78.2773 31.82 78.5339 31.75 78.7139 31.61C78.9006 31.4633 78.9939 31.2767 78.9939 31.05C78.9939 30.85 78.9173 30.6867 78.7639 30.56C78.6173 30.4333 78.4173 30.37 78.1639 30.37H77.4339V29.58H77.9739C78.2273 29.58 78.4239 29.52 78.5639 29.4C78.7039 29.2733 78.7739 29.1033 78.7739 28.89C78.7739 28.6767 78.6906 28.5033 78.5239 28.37C78.3639 28.2367 78.1406 28.17 77.8539 28.17C77.2939 28.17 76.9139 28.4067 76.7139 28.88L76.0039 28.47C76.3573 27.7367 76.9739 27.37 77.8539 27.37C78.4006 27.37 78.8306 27.51 79.1439 27.79C79.4639 28.07 79.6239 28.4133 79.6239 28.82C79.6239 29.3267 79.4239 29.7 79.0239 29.94Z" fill="black"/>
<path d="M85.0185 31.67H85.7085V33.84H84.8485V32.5H81.0985V33.84H80.2385V31.67H80.8485C81.1685 31.23 81.3285 30.6133 81.3285 29.82V27.5H85.0185V31.67ZM81.8385 31.67H84.1585V28.31H82.1885V29.82C82.1885 30.5667 82.0718 31.1833 81.8385 31.67Z" fill="black"/>
<path d="M90.5909 27.5H91.4609V32.5H90.5909V31.64C90.1576 32.3 89.5276 32.63 88.7009 32.63C88.0009 32.63 87.4042 32.3767 86.9109 31.87C86.4176 31.3567 86.1709 30.7333 86.1709 30C86.1709 29.2667 86.4176 28.6467 86.9109 28.14C87.4042 27.6267 88.0009 27.37 88.7009 27.37C89.5276 27.37 90.1576 27.7 90.5909 28.36V27.5ZM88.8109 31.79C89.3176 31.79 89.7409 31.62 90.0809 31.28C90.4209 30.9333 90.5909 30.5067 90.5909 30C90.5909 29.4933 90.4209 29.07 90.0809 28.73C89.7409 28.3833 89.3176 28.21 88.8109 28.21C88.3109 28.21 87.8909 28.3833 87.5509 28.73C87.2109 29.07 87.0409 29.4933 87.0409 30C87.0409 30.5067 87.2109 30.9333 87.5509 31.28C87.8909 31.62 88.3109 31.79 88.8109 31.79Z" fill="black"/>
<path d="M96.239 27.5H97.109V32.5H96.239V30.41H93.649V32.5H92.779V27.5H93.649V29.58H96.239V27.5Z" fill="black"/>
<path d="M102.653 31.87C102.14 32.3767 101.517 32.63 100.783 32.63C100.05 32.63 99.4267 32.3767 98.9133 31.87C98.4067 31.3633 98.1533 30.74 98.1533 30C98.1533 29.26 98.4067 28.6367 98.9133 28.13C99.4267 27.6233 100.05 27.37 100.783 27.37C101.517 27.37 102.14 27.6233 102.653 28.13C103.167 28.6367 103.423 29.26 103.423 30C103.423 30.74 103.167 31.3633 102.653 31.87ZM100.783 31.78C101.283 31.78 101.703 31.61 102.043 31.27C102.383 30.93 102.553 30.5067 102.553 30C102.553 29.4933 102.383 29.07 102.043 28.73C101.703 28.39 101.283 28.22 100.783 28.22C100.29 28.22 99.8733 28.39 99.5333 28.73C99.1933 29.07 99.0233 29.4933 99.0233 30C99.0233 30.5067 99.1933 30.93 99.5333 31.27C99.8733 31.61 100.29 31.78 100.783 31.78Z" fill="black"/>
<path d="M111.279 27.5V32.5H110.409V28.33H107.819V32.5H106.949V27.5H111.279Z" fill="black"/>
<path d="M115.363 27.37C116.063 27.37 116.66 27.6267 117.153 28.14C117.647 28.6467 117.893 29.2667 117.893 30C117.893 30.7333 117.647 31.3567 117.153 31.87C116.66 32.3767 116.063 32.63 115.363 32.63C114.537 32.63 113.907 32.3 113.473 31.64V34.5H112.603V27.5H113.473V28.36C113.907 27.7 114.537 27.37 115.363 27.37ZM115.253 31.79C115.753 31.79 116.173 31.62 116.513 31.28C116.853 30.9333 117.023 30.5067 117.023 30C117.023 29.4933 116.853 29.07 116.513 28.73C116.173 28.3833 115.753 28.21 115.253 28.21C114.747 28.21 114.323 28.3833 113.983 28.73C113.643 29.07 113.473 29.4933 113.473 30C113.473 30.5067 113.643 30.9333 113.983 31.28C114.323 31.62 114.747 31.79 115.253 31.79Z" fill="black"/>
<path d="M122.561 27.5H123.261V32.5H122.401V28.99L119.631 32.5H118.931V27.5H119.791V31.01L122.561 27.5Z" fill="black"/>
<path d="M131.416 27.5V32.5H130.546V28.33H127.956V32.5H127.086V27.5H131.416Z" fill="black"/>
<path d="M136.96 31.87C136.447 32.3767 135.823 32.63 135.09 32.63C134.357 32.63 133.733 32.3767 133.22 31.87C132.713 31.3633 132.46 30.74 132.46 30C132.46 29.26 132.713 28.6367 133.22 28.13C133.733 27.6233 134.357 27.37 135.09 27.37C135.823 27.37 136.447 27.6233 136.96 28.13C137.473 28.6367 137.73 29.26 137.73 30C137.73 30.74 137.473 31.3633 136.96 31.87ZM135.09 31.78C135.59 31.78 136.01 31.61 136.35 31.27C136.69 30.93 136.86 30.5067 136.86 30C136.86 29.4933 136.69 29.07 136.35 28.73C136.01 28.39 135.59 28.22 135.09 28.22C134.597 28.22 134.18 28.39 133.84 28.73C133.5 29.07 133.33 29.4933 133.33 30C133.33 30.5067 133.5 30.93 133.84 31.27C134.18 31.61 134.597 31.78 135.09 31.78Z" fill="black"/>
<path d="M142.86 31.67H143.55V33.84H142.69V32.5H138.94V33.84H138.08V31.67H138.69C139.01 31.23 139.17 30.6133 139.17 29.82V27.5H142.86V31.67ZM139.68 31.67H142V28.31H140.03V29.82C140.03 30.5667 139.914 31.1833 139.68 31.67Z" fill="black"/>
<path d="M148.817 31.67H149.507V33.84H148.647V32.5H144.897V33.84H144.037V31.67H144.647C144.967 31.23 145.127 30.6133 145.127 29.82V27.5H148.817V31.67ZM145.637 31.67H147.957V28.31H145.987V29.82C145.987 30.5667 145.871 31.1833 145.637 31.67Z" fill="black"/>
<path d="M150.86 30.4C150.946 30.8467 151.15 31.1933 151.47 31.44C151.796 31.6867 152.196 31.81 152.67 31.81C153.33 31.81 153.81 31.5667 154.11 31.08L154.85 31.5C154.363 32.2533 153.63 32.63 152.65 32.63C151.856 32.63 151.21 32.3833 150.71 31.89C150.216 31.39 149.97 30.76 149.97 30C149.97 29.2467 150.213 28.62 150.7 28.12C151.186 27.62 151.816 27.37 152.59 27.37C153.323 27.37 153.92 27.63 154.38 28.15C154.846 28.6633 155.08 29.2833 155.08 30.01C155.08 30.1367 155.07 30.2667 155.05 30.4H150.86ZM152.59 28.19C152.123 28.19 151.736 28.3233 151.43 28.59C151.123 28.85 150.933 29.2 150.86 29.64H154.2C154.126 29.1667 153.94 28.8067 153.64 28.56C153.34 28.3133 152.99 28.19 152.59 28.19Z" fill="black"/>
<path d="M158.84 27.37C159.54 27.37 160.136 27.6267 160.63 28.14C161.123 28.6467 161.37 29.2667 161.37 30C161.37 30.7333 161.123 31.3567 160.63 31.87C160.136 32.3767 159.54 32.63 158.84 32.63C158.013 32.63 157.383 32.3 156.95 31.64V34.5H156.08V27.5H156.95V28.36C157.383 27.7 158.013 27.37 158.84 27.37ZM158.73 31.79C159.23 31.79 159.65 31.62 159.99 31.28C160.33 30.9333 160.5 30.5067 160.5 30C160.5 29.4933 160.33 29.07 159.99 28.73C159.65 28.3833 159.23 28.21 158.73 28.21C158.223 28.21 157.8 28.3833 157.46 28.73C157.12 29.07 156.95 29.4933 156.95 30C156.95 30.5067 157.12 30.9333 157.46 31.28C157.8 31.62 158.223 31.79 158.73 31.79Z" fill="black"/>
<path d="M168.158 32.5H167.138L165.268 30.13V32.5H164.408V30.13L162.538 32.5H161.528L163.618 29.92L161.628 27.5H162.638L164.408 29.71V27.5H165.268V29.71L167.038 27.5H168.058L166.058 29.92L168.158 32.5Z" fill="black"/>
<path d="M173.22 32.5H172.14L169.86 30.13V32.5H168.99V27.5H169.86V29.71L172.02 27.5H173.14L170.75 29.92L173.22 32.5Z" fill="black"/>
<path d="M174.18 30.4C174.267 30.8467 174.47 31.1933 174.79 31.44C175.117 31.6867 175.517 31.81 175.99 31.81C176.65 31.81 177.13 31.5667 177.43 31.08L178.17 31.5C177.683 32.2533 176.95 32.63 175.97 32.63C175.177 32.63 174.53 32.3833 174.03 31.89C173.537 31.39 173.29 30.76 173.29 30C173.29 29.2467 173.533 28.62 174.02 28.12C174.507 27.62 175.137 27.37 175.91 27.37C176.643 27.37 177.24 27.63 177.7 28.15C178.167 28.6633 178.4 29.2833 178.4 30.01C178.4 30.1367 178.39 30.2667 178.37 30.4H174.18ZM175.91 28.19C175.443 28.19 175.057 28.3233 174.75 28.59C174.443 28.85 174.253 29.2 174.18 29.64H177.52C177.447 29.1667 177.26 28.8067 176.96 28.56C176.66 28.3133 176.31 28.19 175.91 28.19Z" fill="black"/>
<path d="M69.0699 44.9033C68.3699 45.61 67.5132 45.9633 66.4999 45.9633C65.4865 45.9633 64.6299 45.61 63.9299 44.9033C63.2299 44.1967 62.8799 43.34 62.8799 42.3333C62.8799 41.32 63.2299 40.4633 63.9299 39.7633C64.6299 39.0567 65.4865 38.7033 66.4999 38.7033C67.5132 38.7033 68.3699 39.0567 69.0699 39.7633C69.7765 40.4633 70.1299 41.32 70.1299 42.3333C70.1299 43.34 69.7765 44.1967 69.0699 44.9033ZM64.5699 44.2733C65.0899 44.7933 65.7332 45.0533 66.4999 45.0533C67.2666 45.0533 67.9066 44.7933 68.4199 44.2733C68.9399 43.7467 69.1999 43.1 69.1999 42.3333C69.1999 41.56 68.9399 40.9133 68.4199 40.3933C67.9066 39.8667 67.2666 39.6033 66.4999 39.6033C65.7332 39.6033 65.0899 39.8667 64.5699 40.3933C64.0565 40.9133 63.7999 41.56 63.7999 42.3333C63.7999 43.1 64.0565 43.7467 64.5699 44.2733Z" fill="black"/>
<path d="M74.8779 40.8333V41.6733H73.1779V45.8333H72.3079V41.6733H70.5979V40.8333H74.8779Z" fill="black"/>
<path d="M79.585 40.8333H80.455V45.8333H79.585V44.9733C79.1517 45.6333 78.5217 45.9633 77.695 45.9633C76.995 45.9633 76.3984 45.71 75.905 45.2033C75.4117 44.69 75.165 44.0667 75.165 43.3333C75.165 42.6 75.4117 41.98 75.905 41.4733C76.3984 40.96 76.995 40.7033 77.695 40.7033C78.5217 40.7033 79.1517 41.0333 79.585 41.6933V40.8333ZM77.805 45.1233C78.3117 45.1233 78.735 44.9533 79.075 44.6133C79.415 44.2667 79.585 43.84 79.585 43.3333C79.585 42.8267 79.415 42.4033 79.075 42.0633C78.735 41.7167 78.3117 41.5433 77.805 41.5433C77.305 41.5433 76.885 41.7167 76.545 42.0633C76.205 42.4033 76.035 42.8267 76.035 43.3333C76.035 43.84 76.205 44.2667 76.545 44.6133C76.885 44.9533 77.305 45.1233 77.805 45.1233Z" fill="black"/>
<path d="M84.0432 45.9633C83.3032 45.9633 82.6932 45.72 82.2132 45.2333C81.7332 44.7467 81.4932 44.12 81.4932 43.3533C81.4932 42.5 81.6165 41.8433 81.8632 41.3833C82.1165 40.9233 82.6298 40.5067 83.4032 40.1333C83.5432 40.0667 83.7332 39.98 83.9732 39.8733C84.2198 39.7667 84.3998 39.6867 84.5132 39.6333C84.6265 39.5733 84.7532 39.4967 84.8932 39.4033C85.0332 39.3033 85.1365 39.1967 85.2032 39.0833C85.2765 38.9633 85.3298 38.8267 85.3632 38.6733L86.0632 39.0733C86.0432 39.18 86.0165 39.28 85.9832 39.3733C85.9498 39.46 85.8998 39.5467 85.8332 39.6333C85.7732 39.7133 85.7198 39.7833 85.6732 39.8433C85.6265 39.9033 85.5465 39.97 85.4332 40.0433C85.3265 40.11 85.2465 40.16 85.1932 40.1933C85.1465 40.2267 85.0498 40.2767 84.9032 40.3433C84.7632 40.41 84.6665 40.4567 84.6132 40.4833C84.5665 40.5033 84.4565 40.55 84.2832 40.6233C84.1098 40.69 84.0032 40.7333 83.9632 40.7533C83.5098 40.9467 83.1765 41.1433 82.9632 41.3433C82.7565 41.5433 82.6065 41.7967 82.5132 42.1033C82.7265 41.8367 82.9932 41.64 83.3132 41.5133C83.6332 41.3867 83.9532 41.3233 84.2732 41.3233C84.8998 41.3233 85.4298 41.5367 85.8632 41.9633C86.3032 42.39 86.5232 42.94 86.5232 43.6133C86.5232 44.2933 86.2898 44.8567 85.8232 45.3033C85.3565 45.7433 84.7632 45.9633 84.0432 45.9633ZM82.8732 44.6833C83.1865 44.9767 83.5765 45.1233 84.0432 45.1233C84.5098 45.1233 84.8932 44.98 85.1932 44.6933C85.4998 44.4067 85.6532 44.0467 85.6532 43.6133C85.6532 43.1667 85.5065 42.8033 85.2132 42.5233C84.9265 42.2367 84.5465 42.0933 84.0732 42.0933C83.6465 42.0933 83.2598 42.23 82.9132 42.5033C82.5732 42.77 82.4032 43.1233 82.4032 43.5633C82.4032 44.0167 82.5598 44.39 82.8732 44.6833Z" fill="black"/>
<path d="M88.057 43.7333C88.1437 44.18 88.347 44.5267 88.667 44.7733C88.9937 45.02 89.3937 45.1433 89.867 45.1433C90.527 45.1433 91.007 44.9 91.307 44.4133L92.047 44.8333C91.5603 45.5867 90.827 45.9633 89.847 45.9633C89.0537 45.9633 88.407 45.7167 87.907 45.2233C87.4137 44.7233 87.167 44.0933 87.167 43.3333C87.167 42.58 87.4103 41.9533 87.897 41.4533C88.3837 40.9533 89.0137 40.7033 89.787 40.7033C90.5203 40.7033 91.117 40.9633 91.577 41.4833C92.0437 41.9967 92.277 42.6167 92.277 43.3433C92.277 43.47 92.267 43.6 92.247 43.7333H88.057ZM89.787 41.5233C89.3203 41.5233 88.9337 41.6567 88.627 41.9233C88.3203 42.1833 88.1303 42.5333 88.057 42.9733H91.397C91.3237 42.5 91.137 42.14 90.837 41.8933C90.537 41.6467 90.187 41.5233 89.787 41.5233Z" fill="black"/>
<path d="M97.5071 45.8333H96.4271L94.1471 43.4633V45.8333H93.2771V40.8333H94.1471V43.0433L96.3071 40.8333H97.4271L95.0371 43.2533L97.5071 45.8333Z" fill="black"/>
<path d="M101.997 40.8333H102.867V45.8333H101.997V44.9733C101.564 45.6333 100.934 45.9633 100.107 45.9633C99.4072 45.9633 98.8105 45.71 98.3172 45.2033C97.8238 44.69 97.5771 44.0667 97.5771 43.3333C97.5771 42.6 97.8238 41.98 98.3172 41.4733C98.8105 40.96 99.4072 40.7033 100.107 40.7033C100.934 40.7033 101.564 41.0333 101.997 41.6933V40.8333ZM100.217 45.1233C100.724 45.1233 101.147 44.9533 101.487 44.6133C101.827 44.2667 101.997 43.84 101.997 43.3333C101.997 42.8267 101.827 42.4033 101.487 42.0633C101.147 41.7167 100.724 41.5433 100.217 41.5433C99.7171 41.5433 99.2971 41.7167 98.9571 42.0633C98.6171 42.4033 98.4471 42.8267 98.4471 43.3333C98.4471 43.84 98.6171 44.2667 98.9571 44.6133C99.2971 44.9533 99.7171 45.1233 100.217 45.1233Z" fill="black"/>
<path d="M110.785 38.8333H111.725L109.475 44.1733C109.222 44.7733 108.899 45.21 108.505 45.4833C108.112 45.75 107.632 45.8667 107.065 45.8333V44.9733C107.452 45.0133 107.765 44.9567 108.005 44.8033C108.245 44.65 108.445 44.3867 108.605 44.0133L108.675 43.8533L106.305 38.8333H107.245L109.105 42.8333L110.785 38.8333Z" fill="black"/>
<path d="M117.174 40.8333V45.8333H116.324V42.2033L114.734 44.7633H114.624L113.034 42.2033V45.8333H112.174V40.8333H113.104L114.674 43.3633L116.244 40.8333H117.174Z" fill="black"/>
<path d="M122.642 40.8333H123.512V45.8333H122.642V44.9733C122.208 45.6333 121.578 45.9633 120.752 45.9633C120.052 45.9633 119.455 45.71 118.962 45.2033C118.468 44.69 118.222 44.0667 118.222 43.3333C118.222 42.6 118.468 41.98 118.962 41.4733C119.455 40.96 120.052 40.7033 120.752 40.7033C121.578 40.7033 122.208 41.0333 122.642 41.6933V40.8333ZM120.862 45.1233C121.368 45.1233 121.792 44.9533 122.132 44.6133C122.472 44.2667 122.642 43.84 122.642 43.3333C122.642 42.8267 122.472 42.4033 122.132 42.0633C121.792 41.7167 121.368 41.5433 120.862 41.5433C120.362 41.5433 119.942 41.7167 119.602 42.0633C119.262 42.4033 119.092 42.8267 119.092 43.3333C119.092 43.84 119.262 44.2667 119.602 44.6133C119.942 44.9533 120.362 45.1233 120.862 45.1233Z" fill="black"/>
<path d="M127.59 40.7033C128.29 40.7033 128.886 40.96 129.38 41.4733C129.873 41.98 130.12 42.6 130.12 43.3333C130.12 44.0667 129.873 44.69 129.38 45.2033C128.886 45.71 128.29 45.9633 127.59 45.9633C126.763 45.9633 126.133 45.6333 125.7 44.9733V47.8333H124.83V40.8333H125.7V41.6933C126.133 41.0333 126.763 40.7033 127.59 40.7033ZM127.48 45.1233C127.98 45.1233 128.4 44.9533 128.74 44.6133C129.08 44.2667 129.25 43.84 129.25 43.3333C129.25 42.8267 129.08 42.4033 128.74 42.0633C128.4 41.7167 127.98 41.5433 127.48 41.5433C126.973 41.5433 126.55 41.7167 126.21 42.0633C125.87 42.4033 125.7 42.8267 125.7 43.3333C125.7 43.84 125.87 44.2667 126.21 44.6133C126.55 44.9533 126.973 45.1233 127.48 45.1233Z" fill="black"/>
<path d="M135.378 45.2033C134.865 45.71 134.241 45.9633 133.508 45.9633C132.775 45.9633 132.151 45.71 131.638 45.2033C131.131 44.6967 130.878 44.0733 130.878 43.3333C130.878 42.5933 131.131 41.97 131.638 41.4633C132.151 40.9567 132.775 40.7033 133.508 40.7033C134.241 40.7033 134.865 40.9567 135.378 41.4633C135.891 41.97 136.148 42.5933 136.148 43.3333C136.148 44.0733 135.891 44.6967 135.378 45.2033ZM133.508 45.1133C134.008 45.1133 134.428 44.9433 134.768 44.6033C135.108 44.2633 135.278 43.84 135.278 43.3333C135.278 42.8267 135.108 42.4033 134.768 42.0633C134.428 41.7233 134.008 41.5533 133.508 41.5533C133.015 41.5533 132.598 41.7233 132.258 42.0633C131.918 42.4033 131.748 42.8267 131.748 43.3333C131.748 43.84 131.918 44.2633 132.258 44.6033C132.598 44.9433 133.015 45.1133 133.508 45.1133Z" fill="black"/>
<path d="M140.504 43.2633C141.017 43.4767 141.274 43.8633 141.274 44.4233C141.274 44.8367 141.134 45.1767 140.854 45.4433C140.58 45.7033 140.187 45.8333 139.674 45.8333H137.174V40.8333H139.474C139.974 40.8333 140.36 40.96 140.634 41.2133C140.907 41.46 141.044 41.7867 141.044 42.1933C141.044 42.6733 140.864 43.03 140.504 43.2633ZM139.434 41.6133H138.024V42.9233H139.434C139.94 42.9233 140.194 42.7 140.194 42.2533C140.194 41.8267 139.94 41.6133 139.434 41.6133ZM139.624 45.0433C139.877 45.0433 140.07 44.9833 140.204 44.8633C140.344 44.7433 140.414 44.5733 140.414 44.3533C140.414 44.1467 140.344 43.9867 140.204 43.8733C140.07 43.7533 139.877 43.6933 139.624 43.6933H138.024V45.0433H139.624Z" fill="black"/>
<path d="M146.353 40.8333H147.223V45.8333H146.353V44.9733C145.919 45.6333 145.289 45.9633 144.463 45.9633C143.763 45.9633 143.166 45.71 142.673 45.2033C142.179 44.69 141.933 44.0667 141.933 43.3333C141.933 42.6 142.179 41.98 142.673 41.4733C143.166 40.96 143.763 40.7033 144.463 40.7033C145.289 40.7033 145.919 41.0333 146.353 41.6933V40.8333ZM144.573 45.1233C145.079 45.1233 145.503 44.9533 145.843 44.6133C146.183 44.2667 146.353 43.84 146.353 43.3333C146.353 42.8267 146.183 42.4033 145.843 42.0633C145.503 41.7167 145.079 41.5433 144.573 41.5433C144.073 41.5433 143.653 41.7167 143.313 42.0633C142.973 42.4033 142.803 42.8267 142.803 43.3333C142.803 43.84 142.973 44.2667 143.313 44.6133C143.653 44.9533 144.073 45.1233 144.573 45.1233Z" fill="black"/>
</svg>
