<svg width="100" height="100" viewBox="0 0 100 100" fill="none" xmlns="http://www.w3.org/2000/svg">
<g filter="url(#filter0_b_14527_12763)">
<rect width="100" height="100" rx="50" fill="black" fill-opacity="0.3"/>
<path fill-rule="evenodd" clip-rule="evenodd" d="M50.0011 39.6382C52.8352 39.6382 55.1327 37.3407 55.1327 34.5066C55.1327 31.6725 52.8352 29.375 50.0011 29.375C47.167 29.375 44.8695 31.6725 44.8695 34.5066C44.8695 37.3407 47.167 39.6382 50.0011 39.6382ZM46.7936 70.4276C48.5478 70.4276 49.973 69.0192 50.0004 67.2716C50.0278 69.0192 51.453 70.4276 53.2072 70.4276C54.9722 70.4276 56.4042 69.0019 56.4144 67.2394V67.5412L66.0361 64.0133L66.0263 63.9349C67.1378 63.6534 67.9602 62.6465 67.9602 61.4475C67.9602 60.0306 66.8116 58.8819 65.3947 58.8817L65.3947 58.8817L65.3944 58.8817C65.1433 58.8817 64.9006 58.9178 64.6713 58.985L56.4153 60.1644V48.6198L62.1867 55.0326C62.9351 55.8878 64.945 57.0852 66.9976 55.0326L73.7328 48.2974L73.6799 48.252C74.1132 47.7471 74.375 47.0908 74.375 46.3733C74.375 44.7791 73.0827 43.4867 71.4885 43.4867C70.6116 43.4867 69.826 43.8778 69.2966 44.4949L69.2427 44.4487L64.4318 49.5803L56.4153 40.9224V40.9207H56.4137H56.4137H43.5863V67.2201L43.5863 67.2203C43.5863 68.9916 45.0223 70.4276 46.7936 70.4276ZM28.5115 43.487C29.3884 43.487 30.174 43.878 30.7034 44.4952L30.7573 44.4489L35.5682 49.5805L43.5863 40.9209V48.6183L37.8132 55.0328C37.0649 55.8881 35.055 57.0854 33.0024 55.0328L26.2672 48.2976L26.3201 48.2523C25.8868 47.7474 25.625 47.091 25.625 46.3735C25.625 44.7793 26.9173 43.487 28.5115 43.487ZM34.6053 58.8817C33.1884 58.8819 32.0398 60.0306 32.0398 61.4475C32.0398 62.6465 32.8622 63.6534 33.9737 63.9349L33.9639 64.0133L43.5856 67.5412V60.1646L35.3287 58.985C35.0994 58.9178 34.8567 58.8817 34.6056 58.8817L34.6053 58.8817L34.6053 58.8817Z" fill="#A4FF00"/>
</g>
<defs>
<filter id="filter0_b_14527_12763" x="-40" y="-40" width="180" height="180" filterUnits="userSpaceOnUse" color-interpolation-filters="sRGB">
<feFlood flood-opacity="0" result="BackgroundImageFix"/>
<feGaussianBlur in="BackgroundImageFix" stdDeviation="20"/>
<feComposite in2="SourceAlpha" operator="in" result="effect1_backgroundBlur_14527_12763"/>
<feBlend mode="normal" in="SourceGraphic" in2="effect1_backgroundBlur_14527_12763" result="shape"/>
</filter>
</defs>
</svg>
