<svg width="100" height="100" viewBox="0 0 100 100" fill="none" xmlns="http://www.w3.org/2000/svg">
<g filter="url(#filter0_b_16175_8904)">
<rect width="100" height="100" rx="50" fill="black" fill-opacity="0.3"/>
<path fill-rule="evenodd" clip-rule="evenodd" d="M53.731 32.2886C53.731 29.6439 55.8749 27.5 58.5196 27.5C61.1642 27.5 63.3082 29.6439 63.3082 32.2886C63.3082 34.9333 61.1642 37.0772 58.5196 37.0772C55.8749 37.0772 53.731 34.9333 53.731 32.2886ZM34.9978 33.7014C35.4351 32.3917 36.8512 31.6845 38.1609 32.1218L71.3593 43.2062C72.6689 43.6435 73.3761 45.0596 72.9389 46.3693C72.5016 47.6789 71.0855 48.3861 69.7758 47.9489L58.5756 44.2093C56.2934 47.4434 52.9813 50.152 47.4995 51.2484V60V61.9762V70C47.4995 71.3807 46.3802 72.5 44.9995 72.5C43.6188 72.5 42.4995 71.3807 42.4995 70V61.9762C42.4995 59.103 41.9193 53.3566 41.2808 50.4835C37.7691 49.845 29.6263 48.9287 27.4995 48.7484C25.7433 48.5995 25.2105 47.9439 25.0575 45.5379C25.0192 45.364 24.999 45.1834 24.999 44.998L24.999 34.998C24.999 33.6173 26.1183 32.498 27.499 32.498C28.8797 32.498 29.999 33.6173 29.999 34.998L29.999 44.109C32.7307 44.6148 36.3415 44.9984 41.2495 44.9984C46.4596 44.9984 49.2166 43.0421 50.9145 41.6514L36.5774 36.8645C35.2677 36.4272 34.5605 35.011 34.9978 33.7014Z" fill="#A4FF00"/>
</g>
<defs>
<filter id="filter0_b_16175_8904" x="-40" y="-40" width="180" height="180" filterUnits="userSpaceOnUse" color-interpolation-filters="sRGB">
<feFlood flood-opacity="0" result="BackgroundImageFix"/>
<feGaussianBlur in="BackgroundImageFix" stdDeviation="20"/>
<feComposite in2="SourceAlpha" operator="in" result="effect1_backgroundBlur_16175_8904"/>
<feBlend mode="normal" in="SourceGraphic" in2="effect1_backgroundBlur_16175_8904" result="shape"/>
</filter>
</defs>
</svg>
